<?xml version="1.0" encoding="UTF-8"?><svg id="Living_IT_logo_" xmlns="http://www.w3.org/2000/svg" viewBox="0 0 544.18 161.2"><defs><style>.cls-1{fill:#ff8707;}.cls-2{fill:#231f20;fill-rule:evenodd;}</style></defs><g id="IT"><path class="cls-1" d="M539.65,53.92h-33.93V127.72h-22.25V53.92h-28.8v-20.15h74.51C514.57,13.33,490.63,0,463.58,0,419.07,0,382.98,36.09,382.98,80.6s36.09,80.6,80.6,80.6,80.6-36.09,80.6-80.6c0-9.35-1.6-18.33-4.53-26.68Zm-96.23,73.8h-22.51V33.77h22.51V127.72Z"/></g><g id="living"><path class="cls-2" d="M0,127.72H26.24V33.74H0V127.72Zm43.92,0h26.17V59.64h-26.17V127.72Zm0-76.22h26.17v-17.76h-26.17v17.76Zm75.66,51.28l-13.25-43.14h-27.23l28.4,68.08h23.22l29.03-68.08h-26.41l-13.75,43.14Zm48.65-51.28h26.17v-17.76h-26.17v17.76Zm0,76.22h26.17V59.64h-26.17V127.72Zm91.97-69.62c-5.36,0-9.9,.97-13.63,2.92-3.73,1.95-7.42,5.18-11.06,9.71v-11.09h-24.37V127.72h26.17v-32.69c0-6.2,.99-10.49,2.96-12.89,1.97-2.39,4.54-3.59,7.72-3.59,2.87,0,5.1,.89,6.69,2.66,1.59,1.77,2.38,4.8,2.38,9.07v37.44h26.3v-43.27c0-8.97-2.05-15.61-6.14-19.9-4.09-4.3-9.77-6.44-17.01-6.44Zm110.81,65.84V59.64h-24.5v10.06c-3-4.14-6.23-7.12-9.68-8.91-3.45-1.79-7.84-2.69-13.15-2.69-8.32,0-15.05,2.78-20.19,8.33-5.14,5.56-7.72,13.63-7.72,24.23,0,9.27,1.99,16.73,5.98,22.37,5.62,7.95,12.99,11.92,22.12,11.92,4.67,0,9.02-1.07,13.06-3.21,2.57-1.37,5.14-3.57,7.72-6.6v10.32c0,5-.93,8.5-2.8,10.51-1.87,2.01-4.68,3.01-8.46,3.01-2.92,0-5.34-.66-7.27-1.99-1.33-.9-2.32-2.52-2.96-4.87l-25.4-2.88c-.09,1.45-.13,2.61-.13,3.46,0,6.88,2.56,12.37,7.69,16.48,5.12,4.1,14.54,6.15,28.27,6.15,6,0,11.33-.53,15.98-1.6,4.65-1.07,8.49-2.8,11.51-5.19,3.02-2.39,5.44-5.52,7.27-9.39,1.82-3.87,2.73-7.94,2.73-12.21l-.06-3.01Zm-29.49-20.48c-2.21,2.46-4.94,3.69-8.2,3.69-3.43,0-6.2-1.19-8.3-3.56-2.1-2.37-3.15-6.01-3.15-10.93,0-5.6,1-9.6,2.99-12.02,1.99-2.41,4.66-3.62,8.01-3.62s6.17,1.31,8.49,3.94,3.47,6.42,3.47,11.38-1.1,8.67-3.31,11.12Z"/></g></svg>