<?xml version="1.0" encoding="UTF-8"?>
<svg xmlns="http://www.w3.org/2000/svg" version="1.1" viewBox="0 0 216 216">
  <!-- Generator: Adobe Illustrator 30.1.0, SVG Export Plug-In . SVG Version: 2.1.1 Build 136)  -->
  <defs>
    <style>
      .st0 {
        fill: #fff;
      }

      .st0, .st1 {
        fill-rule: evenodd;
      }

      .st2 {
        isolation: isolate;
      }

      .st1 {
        fill: #ff8705;
      }
    </style>
  </defs>
  <g id="Ellipse_1" class="st2">
    <g id="Ellipse_11" data-name="Ellipse_1">
      <path class="st0" d="M209.84,72.42s.13-.07.11-.1c-3.42-9.78-8.21-18.91-14.14-27.18-.01-.02-.6-.02-.62-.04C174.49,18.7,144.16.34,108,.34,48.36.34.34,48.36.34,108s48.02,107.66,107.66,107.66,107.66-48.02,107.66-107.66c0-12.47-6.9-35.29-5.82-35.58Z"/>
    </g>
  </g>
  <g id="IT" class="st2">
    <g id="IT1" data-name="IT">
      <path class="st1" d="M209.93,72.26h-45.46v98.88h-29.81v-98.88h-38.58v-27h99.83C176.31,17.86,144.24,0,108,0,48.35,0,0,48.36,0,108s48.35,108,108,108,108-48.35,108-108c0-12.53-2.14-24.56-6.06-35.75ZM80.99,171.14h-30.17V45.26h30.17v125.88Z"/>
    </g>
  </g>
</svg>